<?xml version="1.0" encoding="UTF-8" standalone="no"?>
<!-- Created with Inkscape (http://www.inkscape.org/) -->

<svg
   xmlns:dc="http://purl.org/dc/elements/1.1/"
   xmlns:cc="http://creativecommons.org/ns#"
   xmlns:rdf="http://www.w3.org/1999/02/22-rdf-syntax-ns#"
   xmlns:svg="http://www.w3.org/2000/svg"
   xmlns="http://www.w3.org/2000/svg"
   xmlns:xlink="http://www.w3.org/1999/xlink"
   xmlns:sodipodi="http://sodipodi.sourceforge.net/DTD/sodipodi-0.dtd"
   xmlns:inkscape="http://www.inkscape.org/namespaces/inkscape"
   width="323.23865"
   height="323.23865"
   id="svg2"
   version="1.1"
   inkscape:version="0.47 r22583"
   sodipodi:docname="icon.exit.svg"
   inkscape:export-filename="/home/nigel/prog/engine/media/icon.exit.png"
   inkscape:export-xdpi="17.82"
   inkscape:export-ydpi="17.82">
  <defs
     id="defs4">
    <linearGradient
       id="linearGradient3604">
      <stop
         id="stop3606"
         offset="0"
         style="stop-color:#ffffff;stop-opacity:0;" />
      <stop
         id="stop3608"
         offset="1"
         style="stop-color:#ffffff;stop-opacity:0.36842105;" />
    </linearGradient>
    <linearGradient
       id="linearGradient2841">
      <stop
         style="stop-color:#ffffff;stop-opacity:1;"
         offset="0"
         id="stop2843" />
      <stop
         style="stop-color:#ffffff;stop-opacity:0;"
         offset="1"
         id="stop2845" />
    </linearGradient>
    <inkscape:perspective
       sodipodi:type="inkscape:persp3d"
       inkscape:vp_x="0 : 526.18109 : 1"
       inkscape:vp_y="0 : 1000 : 0"
       inkscape:vp_z="744.09448 : 526.18109 : 1"
       inkscape:persp3d-origin="372.04724 : 350.78739 : 1"
       id="perspective10" />
    <linearGradient
       inkscape:collect="always"
       xlink:href="#linearGradient2841"
       id="linearGradient2847"
       x1="296.01642"
       y1="144.73628"
       x2="296.01642"
       y2="218.58003"
       gradientUnits="userSpaceOnUse"
       gradientTransform="translate(-2.0203051,-24.243661)" />
    <inkscape:perspective
       id="perspective2843"
       inkscape:persp3d-origin="0.5 : 0.33333333 : 1"
       inkscape:vp_z="1 : 0.5 : 1"
       inkscape:vp_y="0 : 1000 : 0"
       inkscape:vp_x="0 : 0.5 : 1"
       sodipodi:type="inkscape:persp3d" />
    <linearGradient
       gradientTransform="translate(-36.612775,-61.287213)"
       inkscape:collect="always"
       xlink:href="#linearGradient2866"
       id="linearGradient2874"
       x1="249.50768"
       y1="268.4838"
       x2="332.34018"
       y2="321.01172"
       gradientUnits="userSpaceOnUse" />
    <linearGradient
       id="linearGradient2866">
      <stop
         style="stop-color:#ececec;stop-opacity:1;"
         offset="0"
         id="stop2868" />
      <stop
         style="stop-color:#949494;stop-opacity:1;"
         offset="1"
         id="stop2870" />
    </linearGradient>
    <linearGradient
       gradientTransform="translate(-36.612775,-61.287213)"
       inkscape:collect="always"
       xlink:href="#linearGradient2866"
       id="linearGradient2882"
       x1="268.70059"
       y1="307.87976"
       x2="375.77673"
       y2="418.99655"
       gradientUnits="userSpaceOnUse" />
    <linearGradient
       id="linearGradient2852">
      <stop
         style="stop-color:#ececec;stop-opacity:1;"
         offset="0"
         id="stop2854" />
      <stop
         style="stop-color:#949494;stop-opacity:1;"
         offset="1"
         id="stop2856" />
    </linearGradient>
    <linearGradient
       gradientTransform="translate(-36.612775,-61.287213)"
       inkscape:collect="always"
       xlink:href="#linearGradient2866"
       id="linearGradient2884"
       x1="272.74118"
       y1="312.93051"
       x2="379.81735"
       y2="411.92548"
       gradientUnits="userSpaceOnUse" />
    <linearGradient
       id="linearGradient2859">
      <stop
         style="stop-color:#ececec;stop-opacity:1;"
         offset="0"
         id="stop2861" />
      <stop
         style="stop-color:#949494;stop-opacity:1;"
         offset="1"
         id="stop2863" />
    </linearGradient>
    <linearGradient
       inkscape:collect="always"
       xlink:href="#linearGradient2866"
       id="linearGradient2872"
       x1="288.90363"
       y1="193.73251"
       x2="380.82751"
       y2="267.47366"
       gradientUnits="userSpaceOnUse" />
    <linearGradient
       id="linearGradient2867">
      <stop
         style="stop-color:#ececec;stop-opacity:1;"
         offset="0"
         id="stop2869" />
      <stop
         style="stop-color:#949494;stop-opacity:1;"
         offset="1"
         id="stop2871" />
    </linearGradient>
    <linearGradient
       gradientTransform="translate(-36.612775,-61.287213)"
       y2="267.47366"
       x2="380.82751"
       y1="193.73251"
       x1="288.90363"
       gradientUnits="userSpaceOnUse"
       id="linearGradient2879"
       xlink:href="#linearGradient2866"
       inkscape:collect="always" />
    <inkscape:perspective
       id="perspective3630"
       inkscape:persp3d-origin="0.5 : 0.33333333 : 1"
       inkscape:vp_z="1 : 0.5 : 1"
       inkscape:vp_y="0 : 1000 : 0"
       inkscape:vp_x="0 : 0.5 : 1"
       sodipodi:type="inkscape:persp3d" />
  </defs>
  <sodipodi:namedview
     id="base"
     pagecolor="#ffffff"
     bordercolor="#666666"
     borderopacity="1.0"
     inkscape:pageopacity="0.0"
     inkscape:pageshadow="2"
     inkscape:zoom="0.98994949"
     inkscape:cx="120.19449"
     inkscape:cy="148.33739"
     inkscape:document-units="px"
     inkscape:current-layer="layer1"
     showgrid="false"
     inkscape:window-width="1024"
     inkscape:window-height="693"
     inkscape:window-x="0"
     inkscape:window-y="24"
     inkscape:window-maximized="1" />
  <metadata
     id="metadata7">
    <rdf:RDF>
      <cc:Work
         rdf:about="">
        <dc:format>image/svg+xml</dc:format>
        <dc:type
           rdf:resource="http://purl.org/dc/dcmitype/StillImage" />
        <dc:title />
      </cc:Work>
    </rdf:RDF>
  </metadata>
  <g
     inkscape:label="Layer 1"
     inkscape:groupmode="layer"
     id="layer1"
     transform="translate(-132.84015,-98.278198)">
    <path
       d="m 455.5788,259.89752 c 0,88.98375 -72.13558,161.11933 -161.11933,161.11933 -88.98374,0 -161.11932,-72.13558 -161.11932,-161.11933 0,-88.98374 72.13558,-161.119322 161.11932,-161.119322 88.98375,0 161.11933,72.135582 161.11933,161.119322 z"
       sodipodi:ry="161.11932"
       sodipodi:rx="161.11932"
       sodipodi:cy="259.89752"
       sodipodi:cx="294.45947"
       id="path3612"
       style="fill:#800000;stroke:#afafaf;stroke-opacity:1"
       sodipodi:type="arc"
       inkscape:export-xdpi="8.9099998"
       inkscape:export-ydpi="8.9099998" />
    <path
       style="fill:url(#linearGradient2879);fill-opacity:1;stroke:#afafaf;stroke-opacity:1"
       d="m 293.69972,119.30654 c -51.88394,0 -93.9375,23.07877 -93.9375,51.53125 0,24.0558 30.07001,44.23625 70.71875,49.90625 l 0,25.84375 48.46875,0 0,-26.15625 c 39.62151,-6.04812 68.6875,-25.93792 68.6875,-49.59375 0,-28.45248 -42.05356,-51.53125 -93.9375,-51.53125 z"
       id="path2821" />
    <path
       style="fill:url(#linearGradient2847);fill-opacity:1;stroke:none"
       d="m 293.44923,120.99261 c -55.67973,0 -104.74634,28.2452 -133.6875,71.1875 37.24563,-19.33772 83.10335,-30.78125 132.6875,-30.78125 50.98251,0 97.98826,12.09735 135.78125,32.4375 -28.78831,-43.86408 -78.39397,-72.84375 -134.78125,-72.84375 z"
       id="path2818" />
    <path
       sodipodi:type="arc"
       style="fill:#000000;stroke:#afafaf;stroke-opacity:1"
       id="path2823"
       sodipodi:cx="297.995"
       sodipodi:cy="231.61324"
       sodipodi:rx="17.172594"
       sodipodi:ry="10.606602"
       d="m 315.16759,231.61324 c 0,5.85786 -7.68843,10.6066 -17.17259,10.6066 -9.48417,0 -17.1726,-4.74874 -17.1726,-10.6066 0,-5.85787 7.68843,-10.60661 17.1726,-10.60661 9.48416,0 17.17259,4.74874 17.17259,10.60661 z"
       transform="translate(-36.612775,-61.287213)" />
    <path
       transform="translate(23.976075,-62.297373)"
       d="m 315.16759,231.61324 c 0,5.85786 -7.68843,10.6066 -17.17259,10.6066 -9.48417,0 -17.1726,-4.74874 -17.1726,-10.6066 0,-5.85787 7.68843,-10.60661 17.1726,-10.60661 9.48416,0 17.17259,4.74874 17.17259,10.60661 z"
       sodipodi:ry="10.606602"
       sodipodi:rx="17.172594"
       sodipodi:cy="231.61324"
       sodipodi:cx="297.995"
       id="path2825"
       style="fill:#000000;stroke:#afafaf;stroke-opacity:1"
       sodipodi:type="arc" />
    <rect
       style="fill:url(#linearGradient2874);fill-opacity:1;stroke:#afafaf;stroke-opacity:1"
       id="rect2831"
       width="48.487324"
       height="10.101525"
       x="271.48376"
       y="254.67375" />
    <path
       style="fill:url(#linearGradient2884);fill-opacity:1;stroke:#afafaf;stroke-width:1;stroke-opacity:1"
       d="m 381.38722,234.11904 -29.75,17.1875 7.0625,12.25 -136.46875,78.78125 -6.0625,-10.5 -32.375,18.6875 17.1875,29.75 32.375,-18.6875 -6.5625,-11.375 136.46875,-78.78125 6.5625,11.375 29.75,-17.1875 -18.1875,-31.5 z"
       id="rect2833" />
    <path
       style="fill:url(#linearGradient2882);fill-opacity:1;stroke:#afafaf;stroke-width:1;stroke-opacity:1"
       d="m 200.23097,235.43154 -17.1875,29.75 32.375,18.6875 6.5625,-11.34375 136.46875,78.78125 -6.5625,11.34375 29.75,17.1875 18.1875,-31.5 -29.75,-17.15625 -7.0625,12.21875 -136.46875,-78.78125 6.0625,-10.5 -32.375,-18.6875 z"
       id="rect2839" />
    <path
       style="fill:#000000;fill-opacity:0.40000000000000002;stroke:#afafaf;stroke-opacity:1;stroke-width:0;stroke-miterlimit:4;stroke-dasharray:none"
       d="m 449.31465,307.93603 c -45.87496,21.84396 -98.12997,34.21875 -153.5625,34.21875 -54.50269,0 -105.88836,-11.95855 -151.1875,-33.125 2.75931,10.17674 6.17829,20.00622 10.1875,29.375 14.6131,26.13507 36.3051,47.77574 62.46875,62.34375 24.1433,10.59051 50.07143,16.34375 77.0625,16.34375 31.36514,0 61.28887,-7.77709 88.65625,-21.875 31.25415,-20.24177 55.05814,-50.99981 66.375,-87.28125 z"
       id="path3612-4" />
  </g>
</svg>
